/* XPM */
static char *f127e91ca1f1491af3262f3eb4cbf2f0nxjBzJoqf9jh17U6[] = {
/* columns rows colors chars-per-pixel */
"64 64 44 1 ",
"  c #020000",
". c #0C0000",
"X c #140000",
"o c #1C0000",
"O c #240000",
"+ c #2C0000",
"@ c #340000",
"# c #3C0000",
"$ c #430000",
"% c #4B0100",
"& c #470900",
"* c #4E0900",
"= c #540000",
"- c #550300",
"; c #530500",
": c #550700",
"> c #580000",
", c #580500",
"< c #5C0600",
"1 c #5D0700",
"2 c #520A00",
"3 c #540800",
"4 c #520C00",
"5 c #570D00",
"6 c #580800",
"7 c #5D0B00",
"8 c #580C00",
"9 c #5C0C00",
"0 c #551100",
"q c #5A1300",
"w c #5D1000",
"e c #5C1300",
"r c #5F1900",
"t c #600800",
"y c #630D00",
"u c #610E00",
"i c #601000",
"p c #641000",
"a c #601400",
"s c #641500",
"d c #6A1200",
"f c #641A00",
"g c #691D00",
"h c #6B2100",
/* pixels */
"$=#+OO@O .oOOoXo+###$@O+OO++OoO+@#$##$%$o#%=%=%%%%$##@@@XX@%>%%#",
"=w2%$#@OXoO@#@@@##$$%%$$$#####@##$#$$$#$O$61t,7=67>>=:=%=%$%996=",
"==:3%$#@XO@@#$$%$%2*3%$$%$%%##$$#@+@##@@oO$%67p===t>==676=$$%=6=",
"8638wi;$O+###2524%%%673%;%%%$$$$##@@@@#@.o@#%%*%%:9>=7,,63;%%$%%",
"%%%438q:@#$%%5w93886,uu19q%$$$$$$%%%%$%$XoO+@@@@@%%$%=;%%,:$#$$%",
"#$%;=6s6$$$%%%==,66:6udt=a52%$$$$%%4*%2:##OoOO+XoO+#=$#$%666;%*#",
"%%28,:u6#%%$$$%;==9:66pu=9685%$$#$%%%%%#+$$++OOOoXo+@@#%$%69q55*",
"8288:%=%#$;$#$$%;%:688w832;=33;$@#$$####+$85$$#@OooXO+@$$$%%%%22",
"889::$==#$:$###$%$=66=:3=%%%%%%$########o@$22$$#+OOXXoX+@O++++#%",
"+@#@@@$$@$=$+##@+@#%%%%%$$######$####@@+ +@##@##OXOO.   .ooX  .O",
"   .X+@@+##+ooo.X .o@@@#@@@@+++@@+O@@Oo. .XXOo XX         .X.   ",
"OoX@#%%%%%%$#@@@@+ O#$%%=%;3$$%%=%+%#@#$$+@##$##$O o+++@+O+@@@O+",
"@+X#%$@%%$#@OOO+@@.OOO@#$%0*4wq55$O@%%%%%%#$%3;=:$O++O+@#@+#####",
"+OX@##$$$#@#@OO+@O OOooO@#$*0q5f0$o@##@#$$$$$;;=>%$3%#@@@@+++@++",
"+o O++@##$$##+OOOO @@Oo.O+@#%%%52$o@$@+@@@#$%%;=,$$ifq$#@@@@@@++",
"@O oOOOO@#$$#@+O++ %%#@+ooOO@$%%%%o$$@+@@+O+@#$%%$$wffr2$###$%%#",
"$+X+@@+++@#$$#++#@.@%#@@OOooO@$$%3O$%$$@@+OO++#32#+9fawaaq2=%:5%",
"2$+#%;33%#####@@+O +$$%$@###@@##$:+$:8=%#@OoOoO@#@O5wwuwsfff3;qw",
"a=#$;89833%$#$$$@#X@#*%%%##@++#$$;+6=33q2$@Ooo++@@O2qfiusaaaa8qf",
"8=$%=;=,1=3%#@@@@#O#$%$%%$$#@+++#$O$;%35wq%#@OoO@oo;ffpiiww85255",
"##+@#$$%=$$#@+OXXo.O@@+#$@+OooOooo.O@$$#@#$@@oooo  @%%##$$$#####",
"#$##$oo##@@@#$@+OOo+###@#@@#@++oXXo++OO#@$%$@OOoXXO@+#$$===%%%$$",
":6,==##=%%%==66%###%%663:65wa6%#@++@#++253=;%@O#@#$$$$#:67u73626",
"%2q63#@=%%=:==6;%$$#%$3=%:88fha,%$##@OX%w;%%%$#@$#%;%#%69ipu738$",
"#228:$#====:33,662$##$;97::uighhf3%&#Oo#%**;$@#@#%$$$%$%3338588$",
"$%25w%#%;%%===:82%$@@#$qw97==6fghi62%++#$%;;%%$$#@@%%%#@$%::868%",
"%#$$%#+#$$%%===;:%%#@@+#;=;=%;3wai3w=+O#%%%%%2;%#@@$%$$#@###$%3:",
"1%$%$#O+##$%=;=:3w3$####$=%:=%86:99af$@$%%$$#$$23%#@$2%#@@O@@%%%",
"=73i2@O@$%#@##$=3;5%##%$$$;,6:,7t=,,g=$q5$$@#$$$%36$$$#@+OO@@#%$",
"%;%$%#$=%$:$#@#$%:%$+O+##$:,7,t77uu:9=%fg5$###$$#=6%$%$@@+#@@@$#",
"#$$%;##%$%%#+@@$=,;$@OoO+$%2%=%===,t7$#5fa2$#@@@++##@@%%$#@@@@@@",
" o++@Oo+OooOO+@@$$%$#+OXX.XoOOoOO#$$$#@@####+OoooXXoO@@@@+XXXoX.",
"XXO###@+O.+###$##@%%%$#+O  XO++o.O@@$%===#$==%@OOoXXO@#%$oOO+Ooo",
"+OO+@+@+o o$*$@$#$$0ff40#oXO+@#@#@##$$:p6@%>pi8$+OOO+@#%%O%%%#++",
"+OOoo+#@+ O@####*0&*44$&*O@$@#$#$%#$$$$=%#$:,9wq%@++o+##$.#$$$++",
"+OoOOOO@# o+#$%%#$##&2%#$o+$$$%,%%$%=>=,t#$%6=7ww%#@+o@$%+%%%$##",
"$#OoO+++@ o@#@#+#%%&%$##@..##$=%$%%:,>=:>$==:>699w5$#@@#=@;$###$",
"$%@OOo++@oO%$$##O+@&&*$@OXo#####$$$##$$%%#=1,=:63352$$$;:oq5$@@@",
"@#@oXXO@$+$%22$@++O+$$$#+oo##@+O+++#$$#$$#%==%=:;%;*%$$;3o9q%@++",
"+O+OoOoO+.+#$%%&##+O@$;6=@@$%#@+++O+@@##$+$%%%%:;%$$$###$O%$%$#+",
"+OO@Ooooo +;%;$$##+OoO@%=$#%%%$%$#@@@#$=#o+%%$%=;=3$#@@@+ @@#$%#",
"@Oooo.oXoX@@$$$#@@@OOOO+$@+#####$%#@@@+@# .@%$$$##$$#@@+O  O+++#",
".Oo..  .X  .Xo+OOOOo...XoXX.oO##@@@+OOX .X.X X .XO@@@o+OX       ",
"O$$++OO++OXoXo@###@@+OOO++. +@$$:696%$#+oOOoooO@#%==%@@$$#O XoX.",
"+@##@+OOoXXX.o+@#$#+@@#@+@oo@%$2%%%;%###@+OoO++@#%%2###$$$$o$#OO",
"+@#%2%@OoXoOoO###@+#@##@@#+O@$$$%%#$$#$$#@@+OO##%%%2%$#@%%$O$%#+",
"$@#%05#OO+OOO+$$###$@+++##@#%a8%33;%$#$%2%@+O++@#%%;;2$@#%%+%3%$",
"%$$$*#$$$#@XoXO@$%@@@@@+@#+@%8a23:3%#$##$$%#@+@####%3;32#$#@###;",
"82%%%##%=$@..O+@#%%%%%$$##Oo$8=::33;%%#@$#$$##@@@$$%%;852$@+$%%:",
"6:6:=3$%83OX.Xoo@%:8www4%$OX#;,:=1797t=3;$#$$###$%%;%=;22$+O@%:6",
"=,%$,w6%$5#+@+Xo@%969wi8=%@o$;33676:7u7,6%%%##$%%%%$%%$%#@+o@@%=",
"$%%%%2%52%%@$$@@#$26,7111=#+$%8$&%%$:36686w6;$#$##$%%$#@OoO @##$",
"#$==$###%#$%%$#$#@O##$%==%+O%%$%@OoO$$%%%%$%=3%@+++@%%$@O@  #++#",
"XXXO..OoX++###+Oo .O@+o++oOOooX.. X    .OOoO+#@oX.o.O@OO+..     ",
"@o@$#%$##%sw8i=8;o+$%3q67,=363%$#.+@+O+@##$=6;;3%+#%$%%=%$@OOoO+",
"@X+%%#@@$%$$3a9;2o+#@$*66u7863%%$oOOOoO++O++#%%$$o+#$%%%%%%@OOOO",
"o O;$$$##:;%=gaa%O+#@+#$27798;32%X@@#@@OO+++@##$$.XO+$$%%%=%@OXo",
"O o@#@$%$;6i=,,:%+@$#@+@@@#$$522$ #$##$@O++@@@@@#XOOO@@@#$%=%#Oo",
"O.+#%%%%@#$%88w%;@@;#OOOOOO@##$$$o@%###@+@@+O++++.XOXXXO#@$%%=$+",
"@.o#%%#$##@#&%$$$+O@+ooooXXoO+++@O@%$#$#@@@@@++oo   X .oo+@%=:=$",
"$+@$$$$$#####@#$$XX+@OOOoooXooO@@o@:852*%%$$%%$$+ Xo ..oo+#$====",
"$+@##@++@+@++@$%%oo++@++OooXXo+@@o+8wwqwq3q3%45;$XOo.OX .O@#%%==",
"#oO++@@+O+OooO+@$O++O+@++OXXXoOO@oO#6a9i8wfq%%;%$o+#O+O. O+#%%%$",
"o .oXXooX..XXXoOO..oX    ...  .XX.O+oO++#$@@@@OOo.XO@++X.ooO@@@o"
};